<?xml version="1.0" encoding="UTF-8" standalone="no"?>
<svg
   width="128"
   height="128"
   version="1.1"
   id="svg6"
   sodipodi:docname="icon.svg"
   xml:space="preserve"
   inkscape:version="1.4.2 (ebf0e940d0, 2025-05-08)"
   xmlns:inkscape="http://www.inkscape.org/namespaces/inkscape"
   xmlns:sodipodi="http://sodipodi.sourceforge.net/DTD/sodipodi-0.dtd"
   xmlns="http://www.w3.org/2000/svg"
   xmlns:svg="http://www.w3.org/2000/svg"><defs
     id="defs6" /><sodipodi:namedview
     id="namedview6"
     pagecolor="#ffffff"
     bordercolor="#000000"
     borderopacity="0.25"
     inkscape:showpageshadow="2"
     inkscape:pageopacity="0.0"
     inkscape:pagecheckerboard="0"
     inkscape:deskcolor="#d1d1d1"
     inkscape:zoom="4.4414063"
     inkscape:cx="-16.436236"
     inkscape:cy="107.06069"
     inkscape:window-width="2532"
     inkscape:window-height="1388"
     inkscape:window-x="0"
     inkscape:window-y="0"
     inkscape:window-maximized="0"
     inkscape:current-layer="svg6"
     showgrid="false" /><rect
     width="124"
     height="124"
     x="2"
     y="2"
     fill="#363d52"
     stroke="#212532"
     stroke-width="4"
     rx="14"
     id="rect1"
     style="fill:#807553;fill-opacity:1" /><path
     style="display:inline;fill:#ececec;fill-opacity:1;stroke-width:0.271277"
     d="m 56.121094,15.53125 c -0.972656,0.457682 -1.945313,0.915365 -2.917969,1.373047 -0.873047,0.666667 -1.746094,1.333333 -2.619141,2 -0.789713,0.766276 -1.579427,1.532552 -2.36914,2.298828 -0.735026,0.847005 -1.470052,1.69401 -2.205078,2.541016 -2.302084,2.941406 -4.604167,5.882812 -6.90625,8.824218 -0.720704,0.895183 -1.441407,1.790365 -2.16211,2.685547 -0.748698,0.805339 -1.497396,1.610677 -2.246094,2.416016 -0.840494,0.707031 -1.680989,1.414062 -2.521484,2.121094 -0.899739,0.629557 -1.799479,1.259114 -2.699219,1.888672 -2.701823,1.685546 -5.403645,3.371093 -8.105468,5.05664 -0.941407,0.619792 -1.882813,1.239583 -2.824219,1.859375 -0.855469,0.689453 -1.710938,1.378906 -2.566406,2.068359 -0.65625,0.727865 -1.3125,1.45573 -1.96875,2.183594 -0.357422,0.627604 -0.714844,1.255209 -1.072266,1.882813 0.03516,0.485677 0.07031,0.971354 0.105469,1.457031 0.300781,0.947266 0.601562,1.894531 0.902343,2.841797 0.763672,1.704427 1.527344,3.408854 2.291016,5.113281 -0.933594,0.685547 -1.867187,1.371094 -2.800781,2.056641 -0.840495,0.707682 -1.68099,1.415364 -2.521485,2.123047 l -0.130232,0.128288 c -0.04754,0.04664 -0.0749,0.117222 -0.05922,0.184212 -0.145833,0.970052 -0.291666,1.940104 -0.4375,2.910156 0.07096,1.097005 0.141927,2.19401 0.212891,3.291016 0.172526,1.089192 0.345052,2.178385 0.517578,3.267578 0.279948,1.115885 0.559896,2.23177 0.839844,3.347656 0.35612,0.958984 0.712239,1.917969 1.068359,2.876953 0.530599,0.819661 1.061198,1.639323 1.591797,2.458984 0.787109,0.671875 1.574219,1.34375 2.361328,2.015625 1.001302,0.453125 2.002604,0.90625 3.003906,1.359375 2.529948,0.906901 5.059896,1.813802 7.589844,2.720703 1.041016,0.38737 2.082031,0.77474 3.123047,1.16211 1.014974,0.422526 2.029948,0.845052 3.044922,1.267578 2.011068,0.931641 4.022135,1.863281 6.033203,2.794922 1.007813,0.442057 2.015625,0.884114 3.023438,1.326172 1.026692,0.393229 2.053385,0.786456 3.080078,1.179686 3.388672,1.12109 6.777344,2.24219 10.166015,3.36328 0.804037,0.28906 1.608073,0.57813 2.41211,0.86719 0.88151,0.43685 1.763021,0.8737 2.644531,1.31055 0.860677,0.68554 1.721354,1.37109 2.582031,2.05664 2.597657,2.41471 5.195313,4.82942 7.792969,7.24414 l 0.09961,0.0156 0.09375,-0.0488 c 0.11333,-0.0312 0.198353,0.14268 0.306641,0.0469 0.797526,0.028 1.595052,0.056 2.392578,0.084 0.972656,-0.35677 1.945313,-0.71354 2.917969,-1.07031 0.909505,-0.61719 1.81901,-1.23437 2.728515,-1.85156 6.282687,-5.11234 12.566402,-10.22342 18.848447,-15.336549 3.006249,-2.462687 6.012489,-4.925374 9.018739,-7.388061 1.94141,-1.634766 3.88281,-3.269531 5.82422,-4.904297 0.83138,-0.734375 1.66276,-1.46875 2.49414,-2.203125 0.55599,-0.531901 1.11198,-1.063802 1.66797,-1.595703 0.66862,-0.838542 1.33724,-1.677083 2.00586,-2.515625 0.41341,-0.989583 0.82682,-1.979167 1.24023,-2.96875 0.13672,-0.998047 0.27344,-1.996094 0.41016,-2.994141 -0.0521,-1.15625 -0.10417,-2.3125 -0.15625,-3.46875 -0.0918,-1.070312 -0.1836,-2.140625 -0.27539,-3.210937 -0.12565,-0.515625 -0.2513,-1.03125 -0.37696,-1.546875 -0.89322,-0.588542 -1.78645,-1.177083 -2.67968,-1.765625 -0.99479,-0.491537 -1.98959,-0.983073 -2.98438,-1.47461 -1.0306,-0.409505 -2.0612,-0.81901 -3.09179,-1.228515 -0.84701,-0.280599 -1.69402,-0.561198 -2.54102,-0.841797 -0.0714,-0.06322 -0.11164,-0.174839 -0.21289,-0.203125 -0.14578,-0.07931 -0.2039,-0.254922 -0.35742,-0.324219 -0.10845,-0.06756 -0.12034,-0.211466 -0.22266,-0.285156 -0.0742,-1.969401 -0.14844,-3.938802 -0.22266,-5.908203 -0.0194,-0.195057 0.003,-0.395672 -0.06,-0.584948 -0.12324,-0.561299 -0.28589,-1.113232 -0.42435,-1.670911 -0.14518,-0.175131 -0.29037,-0.350261 -0.43555,-0.525391 -3.45963,-1.71875 -6.91927,-3.4375 -10.378902,-5.15625 -0.964192,-0.526693 -1.928385,-1.053386 -2.892578,-1.580078 -0.925781,-0.593099 -1.851562,-1.186198 -2.777344,-1.779297 -0.863932,-0.683594 -1.727864,-1.367188 -2.591796,-2.050781 -0.820964,-0.75 -1.641928,-1.5 -2.462891,-2.25 -1.59898,-1.539764 -3.197939,-3.079477 -4.796897,-4.619191 -0.818359,-0.772135 -1.636719,-1.544271 -2.455078,-2.316406 -0.823568,-0.73763 -1.647136,-1.475261 -2.470703,-2.212891 -0.846355,-0.716146 -1.692709,-1.432292 -2.539063,-2.148437 -0.86263,-0.684245 -1.72526,-1.36849 -2.58789,-2.052735 -0.886719,-0.659505 -1.773438,-1.31901 -2.660157,-1.978515 -0.917317,-0.624349 -1.834635,-1.248698 -2.751953,-1.873047 -0.853516,-0.545573 -1.707031,-1.091146 -2.560547,-1.636719 -0.960286,-0.417318 -1.920573,-0.834635 -2.880859,-1.251953 -1.066406,-0.313802 -2.132813,-0.627604 -3.199219,-0.941406 -0.386719,-0.105469 -0.773437,-0.210938 -1.160156,-0.316407 z"
     id="path13" /><path
     style="display:inline;fill:#dddddd;fill-opacity:1;stroke-width:0.271277"
     d="m 56.0625,15.507812 c -2.573712,2.117542 -5.096472,4.281599 -7.960942,5.987289 -3.909551,3.221515 -6.21074,7.920151 -9.302012,11.871292 -1.827105,2.453962 -3.717033,4.917554 -4.114938,8.046335 -0.699956,1.778904 -0.475217,3.416251 0.739464,4.902054 3.558942,3.066725 8.282838,4.458068 12.389582,6.709836 2.959755,1.620204 6.313867,2.677432 9.010978,4.672582 2.187555,2.086275 4.614406,4.137523 5.226763,7.252745 0.668995,2.94406 1.693374,6.049504 1.282179,9.030456 -0.586283,1.38928 -1.412881,4.361946 -3.443223,3.141652 C 50.313172,73.473494 41.3387,68.419074 32.091022,64.022217 27.199233,61.523389 22.133019,59.271098 17.34813,56.620518 c -1.541648,-0.977122 -2.912724,-4.903402 -4.449749,-1.904707 -0.799869,1.562653 0.320569,3.73253 0.945873,5.36232 0.31275,1.832266 4.08674,2.211299 2.443724,4.357842 -0.37282,2.259888 -2.177605,2.259386 -3.829319,2.891499 -2.6284587,1.965331 -2.264119,5.394939 -2.18864,8.337079 -0.2710203,3.089176 0.715142,6.229794 3.19559,8.187304 4.481192,3.741111 10.118425,5.76766 15.258504,8.452438 10.468774,4.609402 20.96827,9.183347 31.506354,13.614647 3.221611,1.7216 6.769163,-0.39824 10.177734,-0.16261 5.300742,-0.71731 10.430467,3.96944 15.553223,1.19976 6.875556,-3.69944 12.291887,-9.625639 18.483706,-14.320369 4.69607,-4.060388 9.7795,-7.782523 14.24014,-12.04849 1.58346,-2.485132 3.02416,-5.094561 4.23661,-7.766879 0.52529,-3.486505 -0.57464,-6.632407 -2.8343,-9.281891 -3.68332,-3.629637 -13.6088,-1.866976 -11.84149,-9.055999 0.99658,-2.44852 -1.56486,-3.991573 -3.31399,-5.153464 C 99.338218,45.556138 92.350433,43.780681 87.935077,38.419634 83.930281,34.468236 80.29691,30.0974 76.043515,26.426735 72.160893,23.636208 68.49442,20.452997 64.477766,17.905968 61.750775,16.940056 58.944535,15.70263 56.0625,15.507812 Z"
     id="path12" /><path
     style="display:inline;fill:#c3c1bd;fill-opacity:1;stroke-width:0.271277"
     d="m 49.5,20.412109 c -0.804687,0.61198 -1.609375,1.223959 -2.414062,1.835938 -0.666667,0.720703 -1.333334,1.441406 -2,2.162109 -0.651693,0.89388 -1.303386,1.787761 -1.955079,2.681641 -1.660807,2.422526 -3.321614,4.845052 -4.982421,7.267578 -0.604167,0.932292 -1.208334,1.864583 -1.8125,2.796875 -0.438803,0.877604 -0.877605,1.755208 -1.316407,2.632812 -0.201172,0.954428 -0.402344,1.908855 -0.603515,2.863282 0.160156,1.048828 0.320312,2.097656 0.480468,3.146484 0.04894,0.08745 0.156313,0.07046 0.230469,0.117188 l 0.04687,0.07422 c 0.701172,0.538412 1.402344,1.076823 2.103516,1.615235 0.958333,0.539062 1.916666,1.078125 2.875,1.617187 4.45638,2.125651 8.91276,4.251302 13.36914,6.376953 0.960938,0.53711 1.921875,1.074219 2.882813,1.611329 0.371745,0.231119 0.743489,0.462239 1.115234,0.693359 0.703125,0.71875 1.40625,1.4375 2.109375,2.15625 0.58138,0.759765 1.162761,1.519531 1.744141,2.279297 0.452474,0.878255 0.904948,1.75651 1.357422,2.634765 0.285807,0.936198 0.571614,1.872396 0.857422,2.808594 0.128906,1.091797 0.257812,2.183594 0.386718,3.275391 0.02865,0.746093 0.05729,1.492187 0.08594,2.238281 -0.151693,0.667318 -0.303386,1.334635 -0.455078,2.001953 -0.495443,0.561198 -0.990886,1.122396 -1.486328,1.683594 -0.46224,0.169922 -0.92448,0.339844 -1.386719,0.509766 -0.538412,0.02018 -1.076823,0.04036 -1.615234,0.06055 C 58.125,77.257813 57.132813,76.962891 56.140625,76.667969 50.91493,73.993517 45.690151,71.317266 40.463885,68.643935 35.371106,66.063405 30.278326,63.482874 25.185547,60.902344 21.462891,59.054036 17.740234,57.205729 14.017578,55.357422 c -0.352213,0.316406 -0.704427,0.632812 -1.05664,0.949219 0.05208,0.738281 0.104166,1.476562 0.15625,2.214843 0.530598,0.938151 1.061197,1.876302 1.591796,2.814454 0.294922,0.695963 0.589844,1.391927 0.884766,2.08789 -0.06315,0.479818 -0.126302,0.959636 -0.189453,1.439453 -0.610026,0.923177 -1.220052,1.846354 -1.830078,2.769531 -2.458985,4.125652 -4.917969,8.251303 -7.3769534,12.376954 L 6.15625,80.126953 c 0.125,0.851563 0.25,1.703125 0.375,2.554688 0.7929688,0.664713 1.5859375,1.329427 2.3789062,1.99414 0.967448,0.518229 1.9348958,1.036459 2.9023438,1.554688 5.001302,2.393229 10.002604,4.786458 15.003906,7.179687 1.683594,0.840495 3.367188,1.68099 5.050782,2.521485 3.35677,1.78125 6.713541,3.5625 10.070312,5.343749 1.020182,0.528 2.040365,1.05599 3.060547,1.58399 1.036458,0.49544 2.072917,0.99088 3.109375,1.48632 3.828776,1.66341 7.657552,3.32683 11.486328,4.99024 1.042969,0.34049 2.085938,0.68099 3.128906,1.02148 1.081503,0.1943 2.160829,0.40511 3.251877,0.54013 1.124118,0.10165 2.251615,0.17129 3.377029,0.26065 2.367188,0.0788 4.734376,0.15756 7.101563,0.23633 l 0.175781,-0.0352 c 1.854818,-1.35938 3.709636,-2.71875 5.564453,-4.07813 0.850261,-0.5651 1.700521,-1.13021 2.550782,-1.69531 1.003906,-0.46289 2.007812,-0.92578 3.011718,-1.38867 1.026693,-0.43425 2.053386,-0.86849 3.080079,-1.30274 0.861979,-0.43359 1.723958,-0.86719 2.585937,-1.30078 0.873698,-0.67318 1.747396,-1.34635 2.621094,-2.019531 4.700521,-3.869141 9.401041,-7.738281 14.101561,-11.607422 2.75326,-2.323568 5.50651,-4.647136 8.25977,-6.970703 0.59896,-0.770834 1.19791,-1.541667 1.79687,-2.3125 0.45964,-0.861328 0.91927,-1.722657 1.37891,-2.583985 0.29101,-0.966145 0.58203,-1.932291 0.87304,-2.898437 0.0814,-1.047526 0.16277,-2.095052 0.24415,-3.142578 -0.19206,-1.032552 -0.38412,-2.065104 -0.57618,-3.097656 -0.35872,-0.826172 -0.71744,-1.652344 -1.07617,-2.478516 -0.11734,-0.195039 -0.34662,-0.26254 -0.50586,-0.41211 -0.86133,-0.571614 -1.72265,-1.143229 -2.58398,-1.714843 -2.00326,-0.94987 -4.00651,-1.89974 -6.00977,-2.84961 -0.55078,-0.03125 -1.10156,-0.0625 -1.65234,-0.09375 -0.57748,-0.288411 -1.15495,-0.576823 -1.73242,-0.865234 -0.14959,-0.208281 -0.36359,-0.397303 -0.39453,-0.667969 0.006,-0.228701 -0.0318,-0.469279 0.0664,-0.685547 0.0854,-0.32968 0.19518,-0.659169 0.18946,-1.003906 0.0503,-1.051612 0.0208,-2.104273 0.002,-3.15625 l -0.002,-0.140625 c -0.39779,-0.640625 -0.79558,-1.28125 -1.19336,-1.921875 -0.91081,-0.607422 -1.82162,-1.214844 -2.73243,-1.822265 -0.99153,-0.471355 -1.98307,-0.942709 -2.97461,-1.414063 -1.01757,-0.454427 -2.035152,-0.908854 -3.05273,-1.363281 -0.930339,-0.459636 -1.860677,-0.919271 -2.791016,-1.378906 -0.903645,-0.625652 -1.807291,-1.251303 -2.710937,-1.876954 -0.848307,-0.71289 -1.696615,-1.425781 -2.544922,-2.138672 -0.813151,-0.789713 -1.626302,-1.579427 -2.439453,-2.36914 -0.873047,-0.936849 -1.746094,-1.873698 -2.619141,-2.810547 -1.281901,-1.421224 -2.563802,-2.842448 -3.845703,-4.263672 -0.905599,-0.360026 -1.811198,-0.720052 -2.716797,-1.080078 -1.090495,-0.119792 -2.180989,-0.239583 -3.271484,-0.359375 -1.447917,-0.0625 -2.895833,-0.125 -4.34375,-0.1875 -1.078125,-0.08919 -2.15625,-0.178385 -3.234375,-0.267578 -0.947266,-0.236979 -1.894531,-0.473958 -2.841797,-0.710938 -1.022135,-0.41927 -2.044271,-0.838541 -3.066406,-1.257812 -0.861328,-0.479818 -1.722656,-0.959636 -2.583985,-1.439453 -2.283203,-1.645183 -4.566406,-3.290365 -6.849609,-4.935547 -0.130003,-0.0594 -0.243721,-0.184566 -0.398437,-0.179688 -0.877605,-0.238281 -1.755209,-0.476562 -2.632813,-0.714843 z"
     id="path11" /><path
     style="display:inline;fill:#aba8a1;fill-opacity:1;stroke-width:0.271277"
     d="M 48.486328 20.886719 C 48.224609 20.917318 47.962891 20.947917 47.701172 20.978516 C 45.494141 23.950521 43.287109 26.922526 41.080078 29.894531 C 40.24349 31.097656 39.406901 32.300781 38.570312 33.503906 C 37.857422 34.642578 37.144531 35.78125 36.431641 36.919922 C 35.757161 38.117187 35.082682 39.314453 34.408203 40.511719 C 34.363349 41.540661 34.214247 42.590717 34.371902 43.612025 C 34.596313 44.49305 34.905341 45.348831 35.191406 46.210938 C 35.84804 46.939284 36.748831 47.364338 37.616942 47.782746 C 43.249595 50.455413 48.885591 53.121055 54.519531 55.791016 C 55.551819 56.131326 56.579939 56.488075 57.634766 56.753906 C 58.6324 57.067941 59.773773 56.954093 60.647445 56.361162 C 61.261655 55.988312 61.818938 55.530191 62.419922 55.136719 C 63.291081 55.557406 63.967836 56.266176 64.700183 56.879979 C 65.229679 57.360795 65.86718 57.721425 66.560547 57.902344 C 68.932292 56.917318 71.304036 55.932292 73.675781 54.947266 C 74.650391 54.441406 75.625 53.935547 76.599609 53.429688 C 77.496094 52.748698 78.392578 52.067708 79.289062 51.386719 C 80.520113 50.578225 81.755748 49.776417 83.008379 49.001751 C 84.144909 48.320829 85.281439 47.639907 86.417969 46.958984 C 86.630208 46.820313 86.842448 46.681641 87.054688 46.542969 C 87.457031 45.66862 87.859375 44.794271 88.261719 43.919922 C 88.032118 42.871525 87.814363 41.819832 87.527344 40.785156 C 87.072221 39.81574 86.631456 38.838464 86.113281 37.900391 C 85.491536 36.990885 84.869792 36.08138 84.248047 35.171875 C 83.171224 33.767578 82.094401 32.363281 81.017578 30.958984 C 79.919271 30.729818 78.820964 30.500651 77.722656 30.271484 C 74.429687 30.223307 71.136719 30.17513 67.84375 30.126953 C 67.026042 30.480469 66.208333 30.833984 65.390625 31.1875 C 64.447917 32.261068 63.505208 33.334635 62.5625 34.408203 C 62.402397 34.403727 62.185532 34.489688 62.066406 34.328125 C 61.841585 34.304608 61.807665 34.027035 61.644531 33.914062 C 61.729029 33.72986 61.390211 33.668557 61.46875 33.484375 C 60.875651 32.255859 60.282552 31.027344 59.689453 29.798828 C 59.013021 28.667318 58.336589 27.535807 57.660156 26.404297 C 56.957142 25.545027 56.286437 24.656404 55.513142 23.857681 C 54.694528 23.146863 53.817588 22.499093 52.976562 21.8125 C 52.530599 21.496745 52.084635 21.18099 51.638672 20.865234 C 50.588221 20.847442 49.534836 20.798987 48.486328 20.886719 z M 107.92578 52.375 C 107.78841 52.639974 107.65104 52.904948 107.51367 53.169922 C 106.61849 53.807292 105.72331 54.444661 104.82812 55.082031 C 92.779948 62.589193 80.731771 70.096354 68.683594 77.603516 C 68.197266 77.702474 67.710938 77.801432 67.224609 77.900391 C 66.365234 77.539714 65.505859 77.179036 64.646484 76.818359 C 63.479167 77.234375 62.311849 77.650391 61.144531 78.066406 C 60.14304 78.200464 59.140943 77.921678 58.236648 77.506159 C 56.994439 76.99233 55.803764 76.365629 54.599412 75.770754 C 40.964712 68.886232 27.330012 62.00171 13.695312 55.117188 C 13.31901 55.565755 12.942708 56.014323 12.566406 56.462891 C 12.56716 56.516262 12.672962 56.686264 12.542969 56.703125 C 12.400842 56.835502 12.685002 57.03372 12.521484 57.15625 C 12.537602 57.242607 12.694446 57.423826 12.564453 57.503906 C 12.595012 57.605704 12.754685 57.795122 12.617188 57.892578 C 13.460937 59.458333 14.304688 61.024089 15.148438 62.589844 C 15.367839 63.166016 15.58724 63.742188 15.806641 64.318359 C 14.667318 65.334635 13.527995 66.350911 12.388672 67.367188 C 12.006677 68.238923 11.497351 69.064985 10.819028 69.737706 C 10.10094 70.406343 9.4013388 71.101159 8.6150643 71.69105 C 7.8065912 72.333692 6.6033079 72.375898 5.9823587 73.272745 C 5.4910329 74.164636 5.4253006 75.208262 5.313775 76.200321 C 5.2314219 77.150563 5.2308414 78.110225 5.3394864 79.058297 C 5.4434136 80.001219 5.6441552 80.93126 5.9082031 81.841797 C 6.2111523 82.908514 6.7035813 83.948635 7.5062662 84.731551 C 8.1532751 85.39312 8.8984085 85.956217 9.670217 86.464281 C 10.606004 87.073506 11.591909 87.60056 12.558509 88.158446 C 16.140017 90.188766 19.732579 92.199471 23.320312 94.21875 C 38.763021 101.59831 54.205729 108.97786 69.648438 116.35742 C 70.757812 116.38542 71.867187 116.41341 72.976562 116.44141 C 73.864583 116.31771 74.752604 116.19401 75.640625 116.07031 C 76.577489 115.60181 77.523623 115.1492 78.425781 114.61523 C 83.932456 110.0321 89.443443 105.45411 94.947425 100.86777 C 102.83156 94.215168 110.72099 87.568842 118.59391 80.902965 C 119.18305 80.404711 119.77219 79.906457 120.36133 79.408203 C 120.81445 78.403646 121.26758 77.399089 121.7207 76.394531 C 122.0013 75.330078 122.2819 74.265625 122.5625 73.201172 C 122.65821 72.132381 122.77007 71.063916 122.79102 69.990234 C 122.6811 69.016428 122.59593 68.038512 122.41602 67.074219 C 122.23763 66.417318 122.05924 65.760417 121.88086 65.103516 C 121.53385 64.692057 121.18685 64.280599 120.83984 63.869141 C 119.70573 63.348307 118.57161 62.827474 117.4375 62.306641 C 116.56759 61.744158 115.65961 61.244946 114.75781 60.736328 C 112.73893 59.942708 110.72005 59.149089 108.70117 58.355469 C 108.39675 57.24984 108.65655 56.100678 108.59783 54.9751 C 108.58319 53.896425 108.41448 52.827169 108.14373 51.784373 C 108.03255 51.300024 107.91311 50.817609 107.79883 50.333984 C 107.84115 51.014323 107.88346 51.694661 107.92578 52.375 z "
     id="path10" /><path
     style="display:inline;fill:#8b8981;fill-opacity:1;stroke-width:0.271277"
     d="M 66.882812 30.46875 C 66.10026 31.143229 65.317708 31.817708 64.535156 32.492188 C 64.06783 33.353149 63.589056 34.208822 63.175781 35.097656 C 62.905509 36.097101 62.613567 37.093178 62.449219 38.117188 C 62.353538 39.212141 62.280584 40.308603 62.230866 41.406607 C 62.215742 43.140842 62.202066 44.875122 62.1875 46.609375 C 62.211068 47.727012 62.248228 48.844198 62.298828 49.960938 C 62.390128 50.984734 62.564269 52.004746 62.891142 52.981237 C 63.194121 53.831196 63.521263 54.701627 64.114138 55.397398 C 64.691728 56.068196 65.436937 56.564026 66.138672 57.09375 C 67.039363 57.008193 67.901846 56.702731 68.775391 56.480469 C 69.745633 56.151812 70.619331 55.61283 71.504992 55.109611 C 73.923032 53.742775 76.303921 52.311655 78.697325 50.902433 C 81.302774 49.357482 83.908223 47.81253 86.513672 46.267578 C 86.948309 45.373447 87.437442 44.479311 87.591797 43.484375 C 87.693971 42.621539 87.670391 41.751657 87.664062 40.884766 C 87.261092 39.916403 86.870765 38.941939 86.412109 37.998047 C 85.806283 37.135163 85.211513 36.263444 84.552734 35.439453 C 83.815993 34.746733 83.092388 34.038072 82.304688 33.402344 C 81.446734 32.888848 80.564105 32.41172 79.633465 32.042593 C 78.655633 31.697613 77.645416 31.435261 76.614896 31.310045 C 74.812393 31.065819 73.00069 30.899807 71.189087 30.740079 C 69.803792 30.615131 68.418498 30.490183 67.033203 30.365234 L 66.882812 30.46875 z M 107.81445 50.673828 C 107.46891 51.549718 107.1964 52.49182 106.55664 53.208984 C 105.88248 53.861785 105.15775 54.462884 104.38169 54.990964 C 103.42033 55.641365 102.42949 56.246903 101.45574 56.878466 C 90.8395 63.666161 80.225001 70.456583 69.607422 77.242188 C 68.516927 77.36263 67.426432 77.483073 66.335938 77.603516 C 65.239583 77.664063 64.143229 77.724609 63.046875 77.785156 C 62.053081 77.757214 61.057067 77.748233 60.068359 77.632812 C 59.106128 77.470496 58.153831 77.247569 57.227355 76.939699 C 56.155024 76.522997 55.116191 76.026893 54.078797 75.531295 C 42.258911 69.60029 30.439026 63.669286 18.619141 57.738281 C 17.485677 57.229818 16.352214 56.721354 15.21875 56.212891 C 14.702101 56.07873 14.16818 56.019538 13.634766 56.027344 C 13.149803 56.663952 12.920603 57.501377 13.051452 58.293929 C 13.124666 59.249435 13.976266 59.83932 14.721132 60.297659 C 15.535535 60.76303 16.281495 61.467663 16.484375 62.417969 C 16.707299 63.343361 16.235049 64.324832 15.441406 64.820312 C 14.554139 65.415859 13.589085 65.884414 12.685547 66.455078 C 11.839038 67.006849 11.05119 67.643404 10.304924 68.323566 C 9.5008174 69.011603 8.6791845 69.804893 8.446271 70.880072 C 8.2094291 71.926213 8.2733446 73.015938 8.368062 74.076317 C 8.4864315 75.178162 8.7493507 76.261501 9.1073114 77.309247 C 9.4741302 78.397611 9.9489037 79.448209 10.507812 80.451172 C 11.006288 81.297394 11.577555 82.100003 12.217208 82.845371 C 12.856298 83.59359 13.602639 84.236822 14.329273 84.896661 C 15.129635 85.595405 15.986872 86.226138 16.878219 86.803645 C 17.909152 87.445386 18.945618 88.078662 19.999764 88.681863 C 20.957018 89.242277 21.939896 89.757727 22.915109 90.285948 C 23.922282 90.82194 24.930933 91.35504 25.959773 91.84861 C 27.49397 92.619086 29.051152 93.342154 30.602506 94.077111 C 34.106189 95.723166 37.614469 97.359481 41.115234 99.011719 C 42.795739 99.861317 44.470635 100.72342 46.110605 101.6494 C 47.663007 102.52241 49.210847 103.40356 50.761719 104.2793 C 51.700881 104.79492 52.682758 105.22541 53.650391 105.68359 C 54.630872 106.11241 55.669749 106.38166 56.680844 106.72643 C 59.519515 107.63937 62.381462 108.47789 65.222656 109.38281 C 66.215356 109.74853 67.22132 110.08071 68.193359 110.5 C 69.149682 110.92861 70.049893 111.47083 70.924084 112.04626 C 71.813953 112.63898 72.698901 113.23908 73.582031 113.8418 C 74.445329 114.39233 75.402419 114.95842 76.467738 114.86787 C 77.608789 114.78923 78.59003 114.1057 79.527344 113.50977 C 80.445373 112.86561 81.317118 112.15748 82.17984 111.44156 C 85.288864 108.84416 88.384933 106.23125 91.488888 103.62779 C 100.68469 95.908863 109.86788 88.174935 119.05469 80.445312 C 119.6263 79.48763 120.19792 78.529948 120.76953 77.572266 C 121.21006 76.560801 121.66501 75.554875 122.05273 74.521484 C 122.25732 73.545826 122.48808 72.573635 122.60352 71.582031 C 122.64055 70.605513 122.59292 69.627096 122.46893 68.657915 C 122.26554 67.764887 122.0089 66.874361 121.57602 66.062714 C 121.13393 65.184721 120.56816 64.357464 119.84254 63.689513 C 119.09442 62.967156 118.2001 62.412245 117.27003 61.955592 C 115.74797 61.246709 114.20784 60.577214 112.6783 59.884622 C 112.27186 59.702378 111.86542 59.520134 111.45898 59.337891 C 110.52323 59.308311 109.4247 59.272255 108.7832 58.478516 C 108.33056 57.896669 108.24093 57.140848 108.04688 56.451172 C 108.28125 55.6875 108.51563 54.923828 108.75 54.160156 C 108.51555 53.070916 108.26068 51.986509 107.98138 50.907878 C 107.94825 50.763634 107.87192 50.633058 107.82812 50.492188 L 107.81445 50.673828 z "
     id="path9" /><path
     style="display:inline;fill:#535b5a;fill-opacity:1;stroke-width:0.271277"
     d="M 107.3125,54.349609 C 94.708565,61.862187 82.347323,69.782006 69.858158,77.477454 67.855509,78.769439 65.948051,80.25258 64.673828,82.304688 59.840707,80.081452 55.573252,76.373238 50.514142,74.315209 38.996904,68.441173 27.613509,62.262651 15.667969,57.283203 c -1.854064,-1.336335 -4.160914,-1.196662 -2.223315,1.603017 1.135906,2.60954 5.714272,6.713664 0.278152,7.402074 -4.4905448,1.438698 -8.60174,4.876822 -8.6863363,9.939524 -0.7128726,4.647027 1.2380816,9.823528 5.7929933,11.725036 19.505766,9.67489 39.244486,18.876366 58.846318,28.355736 5.233975,1.1256 9.540979,-1.971 13.109606,-5.39459 12.320133,-10.19282 24.768283,-20.271128 36.576913,-31.05516 3.94708,-3.632728 4.43279,-9.859406 2.6084,-14.681152 -3.24104,-4.170472 -8.89861,-4.709327 -13.27662,-7.037134 -0.81906,-1.360652 1.5341,-6.242628 -1.38158,-3.790945 z"
     id="path8" /><path
     style="display:inline;fill:#2c383e;fill-opacity:1;stroke-width:0.271277"
     d="m 13.160156,55.994141 c -2.472534,2.840372 4.166135,6.405538 1.785115,8.759331 -2.658679,1.988245 -5.4110523,3.88658 -8.1040173,5.80136 -3.2208335,5.365295 -2.9203013,13.908389 3.2022103,17.139749 19.761365,9.735724 39.778783,18.963539 59.593255,28.598389 4.418662,0.83009 8.670018,-0.55607 11.583585,-3.9735 13.105935,-10.66663 25.999216,-21.610452 38.815456,-32.612712 3.36104,-4.41598 4.05138,-11.054796 1.13811,-15.894258 -3.87384,-2.174799 -8.22605,-4.641709 -12.56368,-5.181938 -4.22122,2.652179 -5.79444,8.258576 -10.678018,10.286724 C 87.97014,75.604079 77.905705,82.197473 67.760596,88.574854 61.944172,90.172884 65.338662,81.88206 60.798868,79.695312 50.297541,73.917548 39.404084,68.805238 28.748734,63.289064 23.657018,60.928108 18.847819,57.832999 13.550335,55.995506 l -0.390179,-0.0014 z M 10.082031,73.71875 c 4.732565,2.230403 9.736574,4.268677 14.314457,6.677734 -5.609412,-2.180749 -10.966625,-4.937265 -16.3906246,-7.53125 0.6920559,0.284505 1.3841117,0.569011 2.0761676,0.853516 z m 18.884766,8.589844 c 4.025264,1.851311 8.227736,3.598938 12.066403,5.68164 -5.484553,-2.230495 -10.804705,-4.830418 -16.134762,-7.402343 1.35612,0.573568 2.712239,1.147135 4.068359,1.720703 z m 16.638672,7.595703 c 4.024098,1.851393 8.229425,3.598499 12.064453,5.681641 -5.513518,-2.156133 -10.775464,-4.890432 -16.13086,-7.402344 1.355469,0.573568 2.710938,1.147135 4.066407,1.720703 z m 15.646484,7.144531 c 3.06798,1.392328 6.210294,2.710268 9.138672,4.341792 -4.214091,-1.542296 -8.169004,-3.685931 -12.210937,-5.617182 1.024088,0.42513 2.048177,0.85026 3.072265,1.27539 z"
     id="path7" /><path
     style="fill:#0e1a27;fill-opacity:1;stroke-width:0.271277"
     d="M 69.999366,116.29658 C 50.630258,106.94022 31.111512,97.89615 11.770724,88.484377 6.6434879,86.978908 4.0585708,81.396351 4.8923313,76.353521 7.6750948,70.26068 14.2198,77.419443 18.457349,78.217067 c 17.815689,8.096028 35.591791,16.278958 53.419918,24.347653 1.1985,1.63072 3.005292,5.77023 3.817407,1.45777 2.282356,-4.668492 7.678505,-6.796549 11.258252,-10.416274 11.389573,-9.254839 22.738364,-18.561451 34.267854,-27.642322 3.87085,3.628621 1.57217,10.530821 -1.79482,13.847226 -9.59963,8.781724 -19.654053,17.079773 -29.581722,25.49767 -4.202855,3.48852 -8.453893,6.92016 -12.791657,10.2399 -2.260134,0.71882 -4.688349,1.20042 -7.053215,0.74789 z M 68.869587,95.347811 C 54.832835,87.663625 40.596563,80.351259 26.515955,72.752786 c -2.018335,-1.525058 -7.307796,-2.4638 -6.91457,-5.09702 9.747252,6.287251 20.286181,11.210099 30.470511,16.737266 3.085746,1.625459 6.171491,3.250918 9.257237,4.876377 3.994104,0.468535 8.312798,0.430126 11.357278,-2.599371 10.19818,-6.675878 20.795725,-12.824478 30.518529,-20.174355 2.63169,-4.477787 7.40703,-4.506381 11.12313,-1.613711 4.93747,4.056656 -2.8648,6.731406 -5.55564,8.904062 -4.76254,3.401805 -9.781804,6.389364 -14.489187,9.867371 -4.997931,2.433803 -8.869025,6.676286 -13.912192,9.061591 -2.364612,2.636921 -6.179634,3.067189 -9.501464,2.632815 z"
     id="path6" /></svg>
