<?xml version="1.0" encoding="UTF-8" standalone="no"?>
<svg
   width="256"
   height="256"
   version="1.1"
   id="svg6"
   sodipodi:docname="splash.svg"
   xml:space="preserve"
   inkscape:version="1.4.2 (ebf0e940d0, 2025-05-08)"
   inkscape:export-filename="../splash.png"
   inkscape:export-xdpi="96"
   inkscape:export-ydpi="96"
   xmlns:inkscape="http://www.inkscape.org/namespaces/inkscape"
   xmlns:sodipodi="http://sodipodi.sourceforge.net/DTD/sodipodi-0.dtd"
   xmlns="http://www.w3.org/2000/svg"
   xmlns:svg="http://www.w3.org/2000/svg"><defs
     id="defs6" /><sodipodi:namedview
     id="namedview6"
     pagecolor="#ffffff"
     bordercolor="#000000"
     borderopacity="0.25"
     inkscape:showpageshadow="2"
     inkscape:pageopacity="0.0"
     inkscape:pagecheckerboard="0"
     inkscape:deskcolor="#d1d1d1"
     inkscape:zoom="2"
     inkscape:cx="106.25"
     inkscape:cy="129"
     inkscape:window-width="2275"
     inkscape:window-height="1385"
     inkscape:window-x="0"
     inkscape:window-y="0"
     inkscape:window-maximized="0"
     inkscape:current-layer="svg6"
     showgrid="false"
     inkscape:export-bgcolor="#41414100" /><g
     id="g1"
     transform="matrix(2.1602684,0,0,2.1602684,-10.23578,-10.429916)"><path
       style="display:inline;fill:#ececec;fill-opacity:1;stroke-width:0.271277"
       d="m 56.121094,15.53125 c -0.972656,0.457682 -1.945313,0.915365 -2.917969,1.373047 -0.873047,0.666667 -1.746094,1.333333 -2.619141,2 -0.789713,0.766276 -1.579427,1.532552 -2.36914,2.298828 -0.735026,0.847005 -1.470052,1.69401 -2.205078,2.541016 -2.302084,2.941406 -4.604167,5.882812 -6.90625,8.824218 -0.720704,0.895183 -1.441407,1.790365 -2.16211,2.685547 -0.748698,0.805339 -1.497396,1.610677 -2.246094,2.416016 -0.840494,0.707031 -1.680989,1.414062 -2.521484,2.121094 -0.899739,0.629557 -1.799479,1.259114 -2.699219,1.888672 -2.701823,1.685546 -5.403645,3.371093 -8.105468,5.05664 -0.941407,0.619792 -1.882813,1.239583 -2.824219,1.859375 -0.855469,0.689453 -1.710938,1.378906 -2.566406,2.068359 -0.65625,0.727865 -1.3125,1.45573 -1.96875,2.183594 -0.357422,0.627604 -0.714844,1.255209 -1.072266,1.882813 0.03516,0.485677 0.07031,0.971354 0.105469,1.457031 0.300781,0.947266 0.601562,1.894531 0.902343,2.841797 0.763672,1.704427 1.527344,3.408854 2.291016,5.113281 -0.933594,0.685547 -1.867187,1.371094 -2.800781,2.056641 -0.840495,0.707682 -1.68099,1.415364 -2.521485,2.123047 l -0.130232,0.128288 c -0.04754,0.04664 -0.0749,0.117222 -0.05922,0.184212 -0.145833,0.970052 -0.291666,1.940104 -0.4375,2.910156 0.07096,1.097005 0.141927,2.19401 0.212891,3.291016 0.172526,1.089192 0.345052,2.178385 0.517578,3.267578 0.279948,1.115885 0.559896,2.23177 0.839844,3.347656 0.35612,0.958984 0.712239,1.917969 1.068359,2.876953 0.530599,0.819661 1.061198,1.639323 1.591797,2.458984 0.787109,0.671875 1.574219,1.34375 2.361328,2.015625 1.001302,0.453125 2.002604,0.90625 3.003906,1.359375 2.529948,0.906901 5.059896,1.813802 7.589844,2.720703 1.041016,0.38737 2.082031,0.77474 3.123047,1.16211 1.014974,0.422526 2.029948,0.845052 3.044922,1.267578 2.011068,0.931641 4.022135,1.863281 6.033203,2.794922 1.007813,0.442057 2.015625,0.884114 3.023438,1.326172 1.026692,0.393229 2.053385,0.786456 3.080078,1.179686 3.388672,1.12109 6.777344,2.24219 10.166015,3.36328 0.804037,0.28906 1.608073,0.57813 2.41211,0.86719 0.88151,0.43685 1.763021,0.8737 2.644531,1.31055 0.860677,0.68554 1.721354,1.37109 2.582031,2.05664 2.597657,2.41471 5.195313,4.82942 7.792969,7.24414 l 0.09961,0.0156 0.09375,-0.0488 c 0.11333,-0.0312 0.198353,0.14268 0.306641,0.0469 0.797526,0.028 1.595052,0.056 2.392578,0.084 0.972656,-0.35677 1.945313,-0.71354 2.917969,-1.07031 0.909505,-0.61719 1.81901,-1.23437 2.728515,-1.85156 6.282687,-5.11234 12.566402,-10.22342 18.848447,-15.336549 3.006249,-2.462687 6.012489,-4.925374 9.018739,-7.388061 1.94141,-1.634766 3.88281,-3.269531 5.82422,-4.904297 0.83138,-0.734375 1.66276,-1.46875 2.49414,-2.203125 0.55599,-0.531901 1.11198,-1.063802 1.66797,-1.595703 0.66862,-0.838542 1.33724,-1.677083 2.00586,-2.515625 0.41341,-0.989583 0.82682,-1.979167 1.24023,-2.96875 0.13672,-0.998047 0.27344,-1.996094 0.41016,-2.994141 -0.0521,-1.15625 -0.10417,-2.3125 -0.15625,-3.46875 -0.0918,-1.070312 -0.1836,-2.140625 -0.27539,-3.210937 -0.12565,-0.515625 -0.2513,-1.03125 -0.37696,-1.546875 -0.89322,-0.588542 -1.78645,-1.177083 -2.67968,-1.765625 -0.99479,-0.491537 -1.98959,-0.983073 -2.98438,-1.47461 -1.0306,-0.409505 -2.0612,-0.81901 -3.09179,-1.228515 -0.84701,-0.280599 -1.69402,-0.561198 -2.54102,-0.841797 -0.0714,-0.06322 -0.11164,-0.174839 -0.21289,-0.203125 -0.14578,-0.07931 -0.2039,-0.254922 -0.35742,-0.324219 -0.10845,-0.06756 -0.12034,-0.211466 -0.22266,-0.285156 -0.0742,-1.969401 -0.14844,-3.938802 -0.22266,-5.908203 -0.0194,-0.195057 0.003,-0.395672 -0.06,-0.584948 -0.12324,-0.561299 -0.28589,-1.113232 -0.42435,-1.670911 -0.14518,-0.175131 -0.29037,-0.350261 -0.43555,-0.525391 -3.45963,-1.71875 -6.91927,-3.4375 -10.378902,-5.15625 -0.964192,-0.526693 -1.928385,-1.053386 -2.892578,-1.580078 -0.925781,-0.593099 -1.851562,-1.186198 -2.777344,-1.779297 -0.863932,-0.683594 -1.727864,-1.367188 -2.591796,-2.050781 -0.820964,-0.75 -1.641928,-1.5 -2.462891,-2.25 -1.59898,-1.539764 -3.197939,-3.079477 -4.796897,-4.619191 -0.818359,-0.772135 -1.636719,-1.544271 -2.455078,-2.316406 -0.823568,-0.73763 -1.647136,-1.475261 -2.470703,-2.212891 -0.846355,-0.716146 -1.692709,-1.432292 -2.539063,-2.148437 -0.86263,-0.684245 -1.72526,-1.36849 -2.58789,-2.052735 -0.886719,-0.659505 -1.773438,-1.31901 -2.660157,-1.978515 -0.917317,-0.624349 -1.834635,-1.248698 -2.751953,-1.873047 -0.853516,-0.545573 -1.707031,-1.091146 -2.560547,-1.636719 -0.960286,-0.417318 -1.920573,-0.834635 -2.880859,-1.251953 -1.066406,-0.313802 -2.132813,-0.627604 -3.199219,-0.941406 -0.386719,-0.105469 -0.773437,-0.210938 -1.160156,-0.316407 z"
       id="path13" /><path
       style="display:inline;fill:#dddddd;fill-opacity:1;stroke-width:0.271277"
       d="m 56.0625,15.507812 c -2.573712,2.117542 -5.096472,4.281599 -7.960942,5.987289 -3.909551,3.221515 -6.21074,7.920151 -9.302012,11.871292 -1.827105,2.453962 -3.717033,4.917554 -4.114938,8.046335 -0.699956,1.778904 -0.475217,3.416251 0.739464,4.902054 3.558942,3.066725 8.282838,4.458068 12.389582,6.709836 2.959755,1.620204 6.313867,2.677432 9.010978,4.672582 2.187555,2.086275 4.614406,4.137523 5.226763,7.252745 0.668995,2.94406 1.693374,6.049504 1.282179,9.030456 -0.586283,1.38928 -1.412881,4.361946 -3.443223,3.141652 C 50.313172,73.473494 41.3387,68.419074 32.091022,64.022217 27.199233,61.523389 22.133019,59.271098 17.34813,56.620518 c -1.541648,-0.977122 -2.912724,-4.903402 -4.449749,-1.904707 -0.799869,1.562653 0.320569,3.73253 0.945873,5.36232 0.31275,1.832266 4.08674,2.211299 2.443724,4.357842 -0.37282,2.259888 -2.177605,2.259386 -3.829319,2.891499 -2.6284587,1.965331 -2.264119,5.394939 -2.18864,8.337079 -0.2710203,3.089176 0.715142,6.229794 3.19559,8.187304 4.481192,3.741111 10.118425,5.76766 15.258504,8.452438 10.468774,4.609402 20.96827,9.183347 31.506354,13.614647 3.221611,1.7216 6.769163,-0.39824 10.177734,-0.16261 5.300742,-0.71731 10.430467,3.96944 15.553223,1.19976 6.875556,-3.69944 12.291887,-9.625639 18.483706,-14.320369 4.69607,-4.060388 9.7795,-7.782523 14.24014,-12.04849 1.58346,-2.485132 3.02416,-5.094561 4.23661,-7.766879 0.52529,-3.486505 -0.57464,-6.632407 -2.8343,-9.281891 -3.68332,-3.629637 -13.6088,-1.866976 -11.84149,-9.055999 0.99658,-2.44852 -1.56486,-3.991573 -3.31399,-5.153464 C 99.338218,45.556138 92.350433,43.780681 87.935077,38.419634 83.930281,34.468236 80.29691,30.0974 76.043515,26.426735 72.160893,23.636208 68.49442,20.452997 64.477766,17.905968 61.750775,16.940056 58.944535,15.70263 56.0625,15.507812 Z"
       id="path12" /><path
       style="display:inline;fill:#c3c1bd;fill-opacity:1;stroke-width:0.271277"
       d="m 49.5,20.412109 c -0.804687,0.61198 -1.609375,1.223959 -2.414062,1.835938 -0.666667,0.720703 -1.333334,1.441406 -2,2.162109 -0.651693,0.89388 -1.303386,1.787761 -1.955079,2.681641 -1.660807,2.422526 -3.321614,4.845052 -4.982421,7.267578 -0.604167,0.932292 -1.208334,1.864583 -1.8125,2.796875 -0.438803,0.877604 -0.877605,1.755208 -1.316407,2.632812 -0.201172,0.954428 -0.402344,1.908855 -0.603515,2.863282 0.160156,1.048828 0.320312,2.097656 0.480468,3.146484 0.04894,0.08745 0.156313,0.07046 0.230469,0.117188 l 0.04687,0.07422 c 0.701172,0.538412 1.402344,1.076823 2.103516,1.615235 0.958333,0.539062 1.916666,1.078125 2.875,1.617187 4.45638,2.125651 8.91276,4.251302 13.36914,6.376953 0.960938,0.53711 1.921875,1.074219 2.882813,1.611329 0.371745,0.231119 0.743489,0.462239 1.115234,0.693359 0.703125,0.71875 1.40625,1.4375 2.109375,2.15625 0.58138,0.759765 1.162761,1.519531 1.744141,2.279297 0.452474,0.878255 0.904948,1.75651 1.357422,2.634765 0.285807,0.936198 0.571614,1.872396 0.857422,2.808594 0.128906,1.091797 0.257812,2.183594 0.386718,3.275391 0.02865,0.746093 0.05729,1.492187 0.08594,2.238281 -0.151693,0.667318 -0.303386,1.334635 -0.455078,2.001953 -0.495443,0.561198 -0.990886,1.122396 -1.486328,1.683594 -0.46224,0.169922 -0.92448,0.339844 -1.386719,0.509766 -0.538412,0.02018 -1.076823,0.04036 -1.615234,0.06055 C 58.125,77.257813 57.132813,76.962891 56.140625,76.667969 50.91493,73.993517 45.690151,71.317266 40.463885,68.643935 35.371106,66.063405 30.278326,63.482874 25.185547,60.902344 21.462891,59.054036 17.740234,57.205729 14.017578,55.357422 c -0.352213,0.316406 -0.704427,0.632812 -1.05664,0.949219 0.05208,0.738281 0.104166,1.476562 0.15625,2.214843 0.530598,0.938151 1.061197,1.876302 1.591796,2.814454 0.294922,0.695963 0.589844,1.391927 0.884766,2.08789 -0.06315,0.479818 -0.126302,0.959636 -0.189453,1.439453 -0.610026,0.923177 -1.220052,1.846354 -1.830078,2.769531 -2.458985,4.125652 -4.917969,8.251303 -7.3769534,12.376954 L 6.15625,80.126953 c 0.125,0.851563 0.25,1.703125 0.375,2.554688 0.7929688,0.664713 1.5859375,1.329427 2.3789062,1.99414 0.967448,0.518229 1.9348958,1.036459 2.9023438,1.554688 5.001302,2.393229 10.002604,4.786458 15.003906,7.179687 1.683594,0.840495 3.367188,1.68099 5.050782,2.521485 3.35677,1.78125 6.713541,3.5625 10.070312,5.343749 1.020182,0.528 2.040365,1.05599 3.060547,1.58399 1.036458,0.49544 2.072917,0.99088 3.109375,1.48632 3.828776,1.66341 7.657552,3.32683 11.486328,4.99024 1.042969,0.34049 2.085938,0.68099 3.128906,1.02148 1.081503,0.1943 2.160829,0.40511 3.251877,0.54013 1.124118,0.10165 2.251615,0.17129 3.377029,0.26065 2.367188,0.0788 4.734376,0.15756 7.101563,0.23633 l 0.175781,-0.0352 c 1.854818,-1.35938 3.709636,-2.71875 5.564453,-4.07813 0.850261,-0.5651 1.700521,-1.13021 2.550782,-1.69531 1.003906,-0.46289 2.007812,-0.92578 3.011718,-1.38867 1.026693,-0.43425 2.053386,-0.86849 3.080079,-1.30274 0.861979,-0.43359 1.723958,-0.86719 2.585937,-1.30078 0.873698,-0.67318 1.747396,-1.34635 2.621094,-2.019531 4.700521,-3.869141 9.401041,-7.738281 14.101561,-11.607422 2.75326,-2.323568 5.50651,-4.647136 8.25977,-6.970703 0.59896,-0.770834 1.19791,-1.541667 1.79687,-2.3125 0.45964,-0.861328 0.91927,-1.722657 1.37891,-2.583985 0.29101,-0.966145 0.58203,-1.932291 0.87304,-2.898437 0.0814,-1.047526 0.16277,-2.095052 0.24415,-3.142578 -0.19206,-1.032552 -0.38412,-2.065104 -0.57618,-3.097656 -0.35872,-0.826172 -0.71744,-1.652344 -1.07617,-2.478516 -0.11734,-0.195039 -0.34662,-0.26254 -0.50586,-0.41211 -0.86133,-0.571614 -1.72265,-1.143229 -2.58398,-1.714843 -2.00326,-0.94987 -4.00651,-1.89974 -6.00977,-2.84961 -0.55078,-0.03125 -1.10156,-0.0625 -1.65234,-0.09375 -0.57748,-0.288411 -1.15495,-0.576823 -1.73242,-0.865234 -0.14959,-0.208281 -0.36359,-0.397303 -0.39453,-0.667969 0.006,-0.228701 -0.0318,-0.469279 0.0664,-0.685547 0.0854,-0.32968 0.19518,-0.659169 0.18946,-1.003906 0.0503,-1.051612 0.0208,-2.104273 0.002,-3.15625 l -0.002,-0.140625 c -0.39779,-0.640625 -0.79558,-1.28125 -1.19336,-1.921875 -0.91081,-0.607422 -1.82162,-1.214844 -2.73243,-1.822265 -0.99153,-0.471355 -1.98307,-0.942709 -2.97461,-1.414063 -1.01757,-0.454427 -2.035152,-0.908854 -3.05273,-1.363281 -0.930339,-0.459636 -1.860677,-0.919271 -2.791016,-1.378906 -0.903645,-0.625652 -1.807291,-1.251303 -2.710937,-1.876954 -0.848307,-0.71289 -1.696615,-1.425781 -2.544922,-2.138672 -0.813151,-0.789713 -1.626302,-1.579427 -2.439453,-2.36914 -0.873047,-0.936849 -1.746094,-1.873698 -2.619141,-2.810547 -1.281901,-1.421224 -2.563802,-2.842448 -3.845703,-4.263672 -0.905599,-0.360026 -1.811198,-0.720052 -2.716797,-1.080078 -1.090495,-0.119792 -2.180989,-0.239583 -3.271484,-0.359375 -1.447917,-0.0625 -2.895833,-0.125 -4.34375,-0.1875 -1.078125,-0.08919 -2.15625,-0.178385 -3.234375,-0.267578 -0.947266,-0.236979 -1.894531,-0.473958 -2.841797,-0.710938 -1.022135,-0.41927 -2.044271,-0.838541 -3.066406,-1.257812 -0.861328,-0.479818 -1.722656,-0.959636 -2.583985,-1.439453 -2.283203,-1.645183 -4.566406,-3.290365 -6.849609,-4.935547 -0.130003,-0.0594 -0.243721,-0.184566 -0.398437,-0.179688 -0.877605,-0.238281 -1.755209,-0.476562 -2.632813,-0.714843 z"
       id="path11" /><path
       style="display:inline;fill:#aba8a1;fill-opacity:1;stroke-width:0.271277"
       d="m 48.486328,20.886719 c -0.261719,0.0306 -0.523437,0.0612 -0.785156,0.0918 -2.207031,2.972005 -4.414063,5.94401 -6.621094,8.916015 -0.836588,1.203125 -1.673177,2.40625 -2.509766,3.609375 -0.71289,1.138672 -1.425781,2.277344 -2.138671,3.416016 -0.67448,1.197265 -1.348959,2.394531 -2.023438,3.591797 -0.04485,1.028942 -0.193956,2.078998 -0.0363,3.100306 0.224411,0.881025 0.533439,1.736806 0.819504,2.598913 0.656634,0.728346 1.557425,1.1534 2.425536,1.571808 5.632653,2.672667 11.268649,5.338309 16.902589,8.00827 1.032288,0.34031 2.060408,0.697059 3.115235,0.96289 0.997634,0.314035 2.139007,0.200187 3.012679,-0.392744 0.61421,-0.37285 1.171493,-0.830971 1.772477,-1.224443 0.871159,0.420687 1.547914,1.129457 2.280261,1.74326 0.529496,0.480816 1.166997,0.841446 1.860364,1.022365 2.371745,-0.985026 4.743489,-1.970052 7.115234,-2.955078 0.97461,-0.50586 1.949219,-1.011719 2.923828,-1.517578 0.896485,-0.68099 1.792969,-1.36198 2.689453,-2.042969 1.231051,-0.808494 2.466686,-1.610302 3.719317,-2.384968 1.13653,-0.680922 2.27306,-1.361844 3.40959,-2.042767 0.212239,-0.138671 0.424479,-0.277343 0.636719,-0.416015 0.402343,-0.874349 0.804687,-1.748698 1.207031,-2.623047 -0.229601,-1.048397 -0.447356,-2.10009 -0.734375,-3.134766 -0.455123,-0.969416 -0.895888,-1.946692 -1.414063,-2.884765 -0.621745,-0.909506 -1.243489,-1.819011 -1.865234,-2.728516 -1.076823,-1.404297 -2.153646,-2.808594 -3.230469,-4.212891 -1.098307,-0.229166 -2.196614,-0.458333 -3.294922,-0.6875 -3.292969,-0.04818 -6.585937,-0.09635 -9.878906,-0.144531 -0.817708,0.353516 -1.635417,0.707031 -2.453125,1.060547 -0.942708,1.073568 -1.885417,2.147135 -2.828125,3.220703 -0.160103,-0.0045 -0.376968,0.08149 -0.496094,-0.08008 -0.224821,-0.02352 -0.258741,-0.30109 -0.421875,-0.414063 0.0845,-0.184202 -0.25432,-0.245505 -0.175781,-0.429687 -0.593099,-1.228516 -1.186198,-2.457031 -1.779297,-3.685547 -0.676432,-1.13151 -1.352864,-2.263021 -2.029297,-3.394531 -0.703014,-0.85927 -1.373719,-1.747893 -2.147014,-2.546616 -0.818614,-0.710818 -1.695554,-1.358588 -2.53658,-2.045181 -0.445963,-0.315755 -0.891927,-0.63151 -1.33789,-0.947266 -1.050451,-0.01779 -2.103836,-0.06625 -3.152344,0.02148 z M 107.92578,52.375 c -0.13737,0.264974 -0.27474,0.529948 -0.41211,0.794922 -0.89518,0.63737 -1.79036,1.274739 -2.68555,1.912109 -12.048172,7.507162 -24.096349,15.014323 -36.144526,22.521485 -0.486328,0.09896 -0.972656,0.197916 -1.458985,0.296875 -0.859375,-0.360677 -1.71875,-0.721355 -2.578125,-1.082032 -1.167317,0.416016 -2.334635,0.832032 -3.501953,1.248047 -1.001491,0.134058 -2.003588,-0.144728 -2.907883,-0.560247 -1.242209,-0.513829 -2.432884,-1.14053 -3.637236,-1.735405 -13.6347,-6.884522 -27.2694,-13.769044 -40.9041,-20.653566 -0.376302,0.448567 -0.752604,0.897135 -1.128906,1.345703 7.54e-4,0.05337 0.106556,0.223373 -0.02344,0.240234 -0.142127,0.132377 0.142033,0.330595 -0.02149,0.453125 0.01612,0.08636 0.172962,0.267576 0.04297,0.347656 0.03056,0.101798 0.190232,0.291216 0.05274,0.388672 0.843749,1.565755 1.6875,3.131511 2.53125,4.697266 0.219401,0.576172 0.438802,1.152344 0.658203,1.728515 -1.139323,1.016276 -2.278646,2.032552 -3.417969,3.048829 -0.381995,0.871735 -0.891321,1.697797 -1.569644,2.370518 -0.718088,0.668637 -1.4176892,1.363453 -2.2039637,1.953344 -0.8084731,0.642642 -2.0117564,0.684848 -2.6327056,1.581695 -0.4913258,0.891891 -0.5570581,1.935517 -0.6685837,2.927576 -0.082353,0.950242 -0.082934,1.909904 0.025711,2.857976 0.1039272,0.942922 0.3046688,1.872963 0.5687167,2.7835 0.3029492,1.066717 0.7953782,2.106838 1.5980631,2.889754 0.6470089,0.661569 1.3921423,1.224666 2.1639508,1.73273 0.9357874,0.609225 1.9216924,1.136279 2.8882924,1.694165 3.581508,2.03032 7.17407,4.041025 10.761803,6.060304 15.442709,7.37956 30.885417,14.75911 46.328126,22.13867 1.109374,0.028 2.218749,0.056 3.328124,0.084 0.888021,-0.1237 1.776042,-0.2474 2.664063,-0.3711 0.936864,-0.4685 1.882998,-0.92111 2.785156,-1.45508 5.506675,-4.58313 11.017662,-9.16112 16.521644,-13.74746 7.884137,-6.652602 15.773567,-13.298928 23.646487,-19.964805 0.58914,-0.498254 1.17828,-0.996508 1.76742,-1.494762 0.45312,-1.004557 0.90625,-2.009114 1.35937,-3.013672 0.2806,-1.064453 0.5612,-2.128906 0.8418,-3.193359 0.0957,-1.068791 0.20757,-2.137256 0.22852,-3.210938 -0.10992,-0.973806 -0.19509,-1.951722 -0.375,-2.916015 -0.17839,-0.656901 -0.35678,-1.313802 -0.53516,-1.970703 -0.34701,-0.411459 -0.69401,-0.822917 -1.04102,-1.234375 -1.13411,-0.520834 -2.26823,-1.041667 -3.40234,-1.5625 -0.86991,-0.562483 -1.77789,-1.061695 -2.67969,-1.570313 -2.01888,-0.79362 -4.03776,-1.587239 -6.05664,-2.380859 -0.30442,-1.105629 -0.0446,-2.254791 -0.10334,-3.380369 -0.0146,-1.078675 -0.18335,-2.147931 -0.4541,-3.190727 -0.11118,-0.484349 -0.23062,-0.966764 -0.3449,-1.450389 0.0423,0.680339 0.0846,1.360677 0.12695,2.041016 z"
       id="path10" /><path
       style="display:inline;fill:#8b8981;fill-opacity:1;stroke-width:0.271277"
       d="m 66.882812,30.46875 c -0.782552,0.674479 -1.565104,1.348958 -2.347656,2.023438 -0.467326,0.860961 -0.9461,1.716634 -1.359375,2.605468 -0.270272,0.999445 -0.562214,1.995522 -0.726562,3.019532 -0.09568,1.094953 -0.168635,2.191415 -0.218353,3.289419 -0.01512,1.734235 -0.0288,3.468515 -0.04337,5.202768 0.02357,1.117637 0.06073,2.234823 0.111328,3.351563 0.0913,1.023796 0.265441,2.043808 0.592314,3.020299 0.302979,0.849959 0.630121,1.72039 1.222996,2.416161 0.57759,0.670798 1.322799,1.166628 2.024534,1.696352 0.900691,-0.08556 1.763174,-0.391019 2.636719,-0.613281 0.970242,-0.328657 1.84394,-0.867639 2.729601,-1.370858 2.41804,-1.366836 4.798929,-2.797956 7.192333,-4.207178 2.605449,-1.544951 5.210898,-3.089903 7.816347,-4.634855 0.434637,-0.894131 0.92377,-1.788267 1.078125,-2.783203 0.102174,-0.862836 0.07859,-1.732718 0.07227,-2.599609 -0.40297,-0.968363 -0.793297,-1.942827 -1.251953,-2.886719 -0.605826,-0.862884 -1.200596,-1.734603 -1.859375,-2.558594 -0.736741,-0.69272 -1.460346,-1.401381 -2.248046,-2.037109 -0.857954,-0.513496 -1.740583,-0.990624 -2.671223,-1.359751 -0.977832,-0.34498 -1.988049,-0.607332 -3.018569,-0.732548 -1.802503,-0.244226 -3.614206,-0.410238 -5.425809,-0.569966 -1.385295,-0.124948 -2.770589,-0.249896 -4.155884,-0.374845 z m 40.931638,20.205078 c -0.34554,0.87589 -0.61805,1.817992 -1.25781,2.535156 -0.67416,0.652801 -1.39889,1.2539 -2.17495,1.78198 -0.96136,0.650401 -1.9522,1.255939 -2.92595,1.887502 -10.61624,6.787695 -21.230739,13.578117 -31.848318,20.363722 -1.090495,0.120442 -2.18099,0.240885 -3.271484,0.361328 -1.096355,0.06055 -2.192709,0.121093 -3.289063,0.18164 -0.993794,-0.02794 -1.989808,-0.03692 -2.978516,-0.152344 C 59.106128,77.470496 58.153831,77.247569 57.227355,76.939699 56.155024,76.522997 55.116191,76.026893 54.078797,75.531295 42.258911,69.60029 30.439026,63.669286 18.619141,57.738281 17.485677,57.229818 16.352214,56.721354 15.21875,56.212891 14.702101,56.07873 14.16818,56.019538 13.634766,56.027344 c -0.484963,0.636608 -0.714163,1.474033 -0.583314,2.266585 0.07321,0.955506 0.924814,1.545391 1.66968,2.00373 0.814403,0.465371 1.560363,1.170004 1.763243,2.12031 0.222924,0.925392 -0.249326,1.906863 -1.042969,2.402343 -0.887267,0.595547 -1.852321,1.064102 -2.755859,1.634766 -0.846509,0.551771 -1.634357,1.188326 -2.380623,1.868488 -0.8041066,0.688037 -1.6257395,1.481327 -1.858653,2.556506 -0.2368419,1.046141 -0.1729264,2.135866 -0.078209,3.196245 0.1183695,1.101845 0.3812887,2.185184 0.7392494,3.23293 0.3668188,1.088364 0.8415923,2.138962 1.4005006,3.141925 0.498476,0.846222 1.069743,1.648831 1.709396,2.394199 0.63909,0.748219 1.385431,1.391451 2.112065,2.05129 0.800362,0.698744 1.657599,1.329477 2.548946,1.906984 1.030933,0.641741 2.067399,1.275017 3.121545,1.878218 0.957254,0.560414 1.940132,1.075864 2.915345,1.604085 1.007173,0.535992 2.015824,1.069092 3.044664,1.562662 1.534197,0.770476 3.091379,1.493544 4.642733,2.228501 3.503683,1.646055 7.011963,3.28237 10.512728,4.934608 1.680505,0.849598 3.355401,1.711701 4.995371,2.637681 1.552402,0.87301 3.100242,1.75416 4.651114,2.6299 0.939162,0.51562 1.921039,0.94611 2.888672,1.40429 0.980481,0.42882 2.019358,0.69807 3.030453,1.04284 2.838671,0.91294 5.700618,1.75146 8.541812,2.65638 0.9927,0.36572 1.998664,0.6979 2.970703,1.11719 0.956323,0.42861 1.856534,0.97083 2.730725,1.54626 0.889869,0.59272 1.774817,1.19282 2.657947,1.79554 0.863298,0.55053 1.820388,1.11662 2.885707,1.02607 1.141051,-0.0786 2.122292,-0.76217 3.059606,-1.3581 0.918029,-0.64416 1.789774,-1.35229 2.652496,-2.06821 3.109024,-2.5974 6.205093,-5.21031 9.309048,-7.81377 9.195802,-7.718927 18.378992,-15.452855 27.565802,-23.182478 0.57161,-0.957682 1.14323,-1.915364 1.71484,-2.873046 0.44053,-1.011465 0.89548,-2.017391 1.2832,-3.050782 0.20459,-0.975658 0.43535,-1.947849 0.55079,-2.939453 0.037,-0.976518 -0.0106,-1.954935 -0.13459,-2.924116 -0.20339,-0.893028 -0.46003,-1.783554 -0.89291,-2.595201 -0.44209,-0.877993 -1.00786,-1.70525 -1.73348,-2.373201 -0.74812,-0.722357 -1.64244,-1.277268 -2.57251,-1.733921 -1.52206,-0.708883 -3.06219,-1.378378 -4.59173,-2.07097 -0.40644,-0.182244 -0.81288,-0.364488 -1.21932,-0.546731 -0.93575,-0.02958 -2.03428,-0.06564 -2.67578,-0.859375 -0.45264,-0.581847 -0.54227,-1.337668 -0.73632,-2.027344 0.23437,-0.763672 0.46875,-1.527344 0.70312,-2.291016 -0.23445,-1.08924 -0.48932,-2.173647 -0.76862,-3.252278 -0.0331,-0.144244 -0.10946,-0.27482 -0.15326,-0.41569 z"
       id="path9" /><path
       style="display:inline;fill:#535b5a;fill-opacity:1;stroke-width:0.271277"
       d="M 107.3125,54.349609 C 94.708565,61.862187 82.347323,69.782006 69.858158,77.477454 67.855509,78.769439 65.948051,80.25258 64.673828,82.304688 59.840707,80.081452 55.573252,76.373238 50.514142,74.315209 38.996904,68.441173 27.613509,62.262651 15.667969,57.283203 c -1.854064,-1.336335 -4.160914,-1.196662 -2.223315,1.603017 1.135906,2.60954 5.714272,6.713664 0.278152,7.402074 -4.4905448,1.438698 -8.60174,4.876822 -8.6863363,9.939524 -0.7128726,4.647027 1.2380816,9.823528 5.7929933,11.725036 19.505766,9.67489 39.244486,18.876366 58.846318,28.355736 5.233975,1.1256 9.540979,-1.971 13.109606,-5.39459 12.320133,-10.19282 24.768283,-20.271128 36.576913,-31.05516 3.94708,-3.632728 4.43279,-9.859406 2.6084,-14.681152 -3.24104,-4.170472 -8.89861,-4.709327 -13.27662,-7.037134 -0.81906,-1.360652 1.5341,-6.242628 -1.38158,-3.790945 z"
       id="path8" /><path
       style="display:inline;fill:#2c383e;fill-opacity:1;stroke-width:0.271277"
       d="m 13.160156,55.994141 c -2.472534,2.840372 4.166135,6.405538 1.785115,8.759331 -2.658679,1.988245 -5.4110523,3.88658 -8.1040173,5.80136 -3.2208335,5.365295 -2.9203013,13.908389 3.2022103,17.139749 19.761365,9.735724 39.778783,18.963539 59.593255,28.598389 4.418662,0.83009 8.670018,-0.55607 11.583585,-3.9735 13.105935,-10.66663 25.999216,-21.610452 38.815456,-32.612712 3.36104,-4.41598 4.05138,-11.054796 1.13811,-15.894258 -3.87384,-2.174799 -8.22605,-4.641709 -12.56368,-5.181938 -4.22122,2.652179 -5.79444,8.258576 -10.678018,10.286724 C 87.97014,75.604079 77.905705,82.197473 67.760596,88.574854 61.944172,90.172884 65.338662,81.88206 60.798868,79.695312 50.297541,73.917548 39.404084,68.805238 28.748734,63.289064 23.657018,60.928108 18.847819,57.832999 13.550335,55.995506 l -0.390179,-0.0014 z M 10.082031,73.71875 c 4.732565,2.230403 9.736574,4.268677 14.314457,6.677734 -5.609412,-2.180749 -10.966625,-4.937265 -16.3906246,-7.53125 0.6920559,0.284505 1.3841117,0.569011 2.0761676,0.853516 z m 18.884766,8.589844 c 4.025264,1.851311 8.227736,3.598938 12.066403,5.68164 -5.484553,-2.230495 -10.804705,-4.830418 -16.134762,-7.402343 1.35612,0.573568 2.712239,1.147135 4.068359,1.720703 z m 16.638672,7.595703 c 4.024098,1.851393 8.229425,3.598499 12.064453,5.681641 -5.513518,-2.156133 -10.775464,-4.890432 -16.13086,-7.402344 1.355469,0.573568 2.710938,1.147135 4.066407,1.720703 z m 15.646484,7.144531 c 3.06798,1.392328 6.210294,2.710268 9.138672,4.341792 -4.214091,-1.542296 -8.169004,-3.685931 -12.210937,-5.617182 1.024088,0.42513 2.048177,0.85026 3.072265,1.27539 z"
       id="path7" /><path
       style="fill:#0e1a27;fill-opacity:1;stroke-width:0.271277"
       d="M 69.999366,116.29658 C 50.630258,106.94022 31.111512,97.89615 11.770724,88.484377 6.6434879,86.978908 4.0585708,81.396351 4.8923313,76.353521 7.6750948,70.26068 14.2198,77.419443 18.457349,78.217067 c 17.815689,8.096028 35.591791,16.278958 53.419918,24.347653 1.1985,1.63072 3.005292,5.77023 3.817407,1.45777 2.282356,-4.668492 7.678505,-6.796549 11.258252,-10.416274 11.389573,-9.254839 22.738364,-18.561451 34.267854,-27.642322 3.87085,3.628621 1.57217,10.530821 -1.79482,13.847226 -9.59963,8.781724 -19.654053,17.079773 -29.581722,25.49767 -4.202855,3.48852 -8.453893,6.92016 -12.791657,10.2399 -2.260134,0.71882 -4.688349,1.20042 -7.053215,0.74789 z M 68.869587,95.347811 C 54.832835,87.663625 40.596563,80.351259 26.515955,72.752786 c -2.018335,-1.525058 -7.307796,-2.4638 -6.91457,-5.09702 9.747252,6.287251 20.286181,11.210099 30.470511,16.737266 3.085746,1.625459 6.171491,3.250918 9.257237,4.876377 3.994104,0.468535 8.312798,0.430126 11.357278,-2.599371 10.19818,-6.675878 20.795725,-12.824478 30.518529,-20.174355 2.63169,-4.477787 7.40703,-4.506381 11.12313,-1.613711 4.93747,4.056656 -2.8648,6.731406 -5.55564,8.904062 -4.76254,3.401805 -9.781804,6.389364 -14.489187,9.867371 -4.997931,2.433803 -8.869025,6.676286 -13.912192,9.061591 -2.364612,2.636921 -6.179634,3.067189 -9.501464,2.632815 z"
       id="path6" /></g></svg>
